<svg width="240" height="234" viewBox="0 0 240 234" fill="none" xmlns="http://www.w3.org/2000/svg">
<path d="M42.5 0H197.5C221 0 240 19 240 42.5V191.5C240 215 221 234 197.5 234H42.5C19 234 0 215 0 191.5V42.5C0 19 19 0 42.5 0Z" fill="#49021F"/>
<path d="M87.1984 61.2019V163.802C87.1984 164.902 86.6984 165.402 85.7984 165.402H66.1984C65.2984 165.402 64.8984 164.902 64.8984 163.802V61.2019C64.8984 60.3019 65.3984 59.9019 66.2984 59.9019H85.7984C86.3984 59.8019 86.9984 60.2019 87.0984 60.9019C87.1984 61.0019 87.1984 61.1019 87.1984 61.2019Z" fill="#FF3366"/>
<path d="M144.799 167.001C137.399 167.101 129.999 165.601 123.299 162.501C116.999 159.601 111.799 154.801 108.199 148.901C104.499 142.801 102.699 135.201 102.699 126.101C102.599 118.701 104.499 111.401 108.199 105.001C111.999 98.5007 117.499 93.1007 124.099 89.5007C131.099 85.6007 139.499 83.7007 149.399 83.7007C149.899 83.7007 150.599 83.7007 151.499 83.8007C152.399 83.9007 153.399 83.9007 154.599 84.0007V52.4007C154.599 51.7007 154.899 51.3007 155.599 51.3007H175.899C176.399 51.2007 176.799 51.6007 176.899 52.0007C176.899 52.1007 176.899 52.2007 176.899 52.2007V147.401C176.899 149.201 176.999 151.201 177.099 153.401C177.299 155.501 177.399 157.501 177.499 159.201C177.499 159.901 177.199 160.501 176.499 160.801C171.299 163.001 165.799 164.601 160.199 165.601C155.199 166.501 149.999 167.001 144.799 167.001ZM154.599 147.001V103.001C153.699 102.801 152.799 102.601 151.899 102.501C150.799 102.401 149.699 102.301 148.599 102.301C144.699 102.301 140.799 103.101 137.299 104.901C133.899 106.601 130.999 109.101 128.799 112.301C126.599 115.501 125.499 119.801 125.499 125.001C125.399 128.501 125.999 132.001 127.199 135.301C128.199 138.001 129.699 140.401 131.699 142.401C133.599 144.201 135.899 145.601 138.499 146.401C141.199 147.301 143.999 147.701 146.799 147.701C148.299 147.701 149.699 147.601 150.999 147.501C152.299 147.601 153.499 147.401 154.599 147.001Z" fill="#FF3366"/>
</svg>
